# xmcd
#
# Track frame offsets:
# 150
# 13277
# 27065
# 40161
# 53606
# 65365
# 78781
# 92865
# 106671
# 119832
# 134084
# 147529
# 159883
# 172336
#
# Disc length: 2442 seconds
#
#
# Revision: 2
# Processed by: cddbd v1.5PL3 Copyright (c) Steve Scherf et al.
# Submitted via: FreeRIP 2.60 
#
DISCID=bf09880e
DTITLE=Ella Fitztgerald - Ella Fitzgerald - Disc 2
DYEAR=2000
DGENRE=Jazz
TTITLE0=I Was Doing  All Right
TTITLE1=Darktown Strutters Ball
TTITLE2=Heart Of Mine
TTITLE3=Under The Spell Of The Blues
TTITLE4=Sing Me A Swing Song (And Let Me Dance)
TTITLE5=You Can't Be Mine (And Someone Else's Too)
TTITLE6=McPherson Is Rehearsin'
TTITLE7=A Little Bit Later On
TTITLE8=Pack Up Your Sins And Go To The Devil
TTITLE9=Love, You're Just A Laugh
TTITLE10=It's Foxy
TTITLE11=My Last Affair
TTITLE12=If You Only Knew
TTITLE13=Vote For Mr. Rhythm
EXTD=YEAR: 2000\nCD2
EXTT0=
EXTT1=
EXTT2=
EXTT3=
EXTT4=
EXTT5=
EXTT6=
EXTT7=
EXTT8=
EXTT9=
EXTT10=
EXTT11=
EXTT12=
EXTT13=
PLAYORDER=
